<mxfile host="app.diagrams.net" modified="2024-02-29T01:49:51.771Z" agent="Mozilla/5.0 (Windows NT 10.0; Win64; x64) AppleWebKit/537.36 (KHTML, like Gecko) Chrome/121.0.0.0 Safari/537.36" etag="9ZSGzRdVlHDhAstw2ryS" version="21.3.8" type="device" pages="2">
  <diagram id="5dC6ZIHJrVWRTG4pdYxN" name="Casos de uso">
    <mxGraphModel dx="1297" dy="908" grid="1" gridSize="10" guides="1" tooltips="1" connect="1" arrows="1" fold="1" page="1" pageScale="1" pageWidth="1169" pageHeight="827" math="0" shadow="0">
      <root>
        <mxCell id="0" />
        <mxCell id="1" parent="0" />
        <mxCell id="FsN47DSohb5AFmDKngas-1" value="Administrador" style="shape=umlActor;verticalLabelPosition=bottom;verticalAlign=top;html=1;" vertex="1" parent="1">
          <mxGeometry x="40" y="330.09" width="100" height="200" as="geometry" />
        </mxCell>
        <mxCell id="FsN47DSohb5AFmDKngas-2" value="Usuario" style="shape=umlActor;verticalLabelPosition=bottom;verticalAlign=top;html=1;" vertex="1" parent="1">
          <mxGeometry x="605" y="325.65" width="102.72" height="205.44" as="geometry" />
        </mxCell>
        <mxCell id="WSIAjKhX-EABzu_cGnmR-1" value="Registrar usuarios" style="ellipse;whiteSpace=wrap;html=1;" vertex="1" parent="1">
          <mxGeometry x="390" y="116" width="140" height="61" as="geometry" />
        </mxCell>
        <mxCell id="WSIAjKhX-EABzu_cGnmR-2" value="Modificar usuarios" style="ellipse;whiteSpace=wrap;html=1;" vertex="1" parent="1">
          <mxGeometry x="390" y="183.21857142857144" width="140" height="61" as="geometry" />
        </mxCell>
        <mxCell id="WSIAjKhX-EABzu_cGnmR-3" value="Eliminar usuarios" style="ellipse;whiteSpace=wrap;html=1;" vertex="1" parent="1">
          <mxGeometry x="390" y="249.21714285714285" width="140" height="61" as="geometry" />
        </mxCell>
        <mxCell id="WSIAjKhX-EABzu_cGnmR-4" value="Registrar libros" style="ellipse;whiteSpace=wrap;html=1;" vertex="1" parent="1">
          <mxGeometry x="390" y="315.64571428571423" width="140" height="61" as="geometry" />
        </mxCell>
        <mxCell id="WSIAjKhX-EABzu_cGnmR-5" value="Ver historial de transacciones de usuarios" style="ellipse;whiteSpace=wrap;html=1;" vertex="1" parent="1">
          <mxGeometry x="390" y="581.3600000000001" width="140" height="61" as="geometry" />
        </mxCell>
        <mxCell id="WSIAjKhX-EABzu_cGnmR-6" value="Ver historial de transacciones de libros" style="ellipse;whiteSpace=wrap;html=1;" vertex="1" parent="1">
          <mxGeometry x="390" y="513.9314285714287" width="140" height="61" as="geometry" />
        </mxCell>
        <mxCell id="WSIAjKhX-EABzu_cGnmR-7" value="Eliminar libros" style="ellipse;whiteSpace=wrap;html=1;" vertex="1" parent="1">
          <mxGeometry x="390" y="447.5028571428571" width="140" height="61" as="geometry" />
        </mxCell>
        <mxCell id="WSIAjKhX-EABzu_cGnmR-8" value="Modificar libros" style="ellipse;whiteSpace=wrap;html=1;" vertex="1" parent="1">
          <mxGeometry x="390" y="382.0742857142857" width="140" height="61" as="geometry" />
        </mxCell>
        <mxCell id="WSIAjKhX-EABzu_cGnmR-19" value="" style="endArrow=open;endFill=1;endSize=12;html=1;rounded=0;exitX=0.5;exitY=0.5;exitDx=0;exitDy=0;exitPerimeter=0;entryX=0;entryY=0.5;entryDx=0;entryDy=0;" edge="1" parent="1" source="FsN47DSohb5AFmDKngas-1" target="WSIAjKhX-EABzu_cGnmR-1">
          <mxGeometry width="160" relative="1" as="geometry">
            <mxPoint x="170" y="410.09" as="sourcePoint" />
            <mxPoint x="330" y="410.09" as="targetPoint" />
          </mxGeometry>
        </mxCell>
        <mxCell id="WSIAjKhX-EABzu_cGnmR-20" value="" style="endArrow=open;endFill=1;endSize=12;html=1;rounded=0;exitX=0.5;exitY=0.5;exitDx=0;exitDy=0;exitPerimeter=0;entryX=0;entryY=0.5;entryDx=0;entryDy=0;" edge="1" parent="1" source="FsN47DSohb5AFmDKngas-1" target="WSIAjKhX-EABzu_cGnmR-2">
          <mxGeometry width="160" relative="1" as="geometry">
            <mxPoint x="100" y="270.09" as="sourcePoint" />
            <mxPoint x="330" y="220.09" as="targetPoint" />
          </mxGeometry>
        </mxCell>
        <mxCell id="WSIAjKhX-EABzu_cGnmR-21" value="" style="endArrow=open;endFill=1;endSize=12;html=1;rounded=0;exitX=0.5;exitY=0.5;exitDx=0;exitDy=0;exitPerimeter=0;entryX=0;entryY=0.5;entryDx=0;entryDy=0;" edge="1" parent="1" source="FsN47DSohb5AFmDKngas-1" target="WSIAjKhX-EABzu_cGnmR-3">
          <mxGeometry width="160" relative="1" as="geometry">
            <mxPoint x="110" y="280.09" as="sourcePoint" />
            <mxPoint x="340" y="230.09" as="targetPoint" />
          </mxGeometry>
        </mxCell>
        <mxCell id="WSIAjKhX-EABzu_cGnmR-22" value="" style="endArrow=open;endFill=1;endSize=12;html=1;rounded=0;entryX=0;entryY=0.5;entryDx=0;entryDy=0;exitX=0.5;exitY=0.5;exitDx=0;exitDy=0;exitPerimeter=0;" edge="1" parent="1" source="FsN47DSohb5AFmDKngas-1" target="WSIAjKhX-EABzu_cGnmR-4">
          <mxGeometry width="160" relative="1" as="geometry">
            <mxPoint x="70" y="340.09" as="sourcePoint" />
            <mxPoint x="350" y="240.09" as="targetPoint" />
          </mxGeometry>
        </mxCell>
        <mxCell id="WSIAjKhX-EABzu_cGnmR-23" value="" style="endArrow=open;endFill=1;endSize=12;html=1;rounded=0;entryX=0;entryY=0.5;entryDx=0;entryDy=0;exitX=0.5;exitY=0.5;exitDx=0;exitDy=0;exitPerimeter=0;" edge="1" parent="1" source="FsN47DSohb5AFmDKngas-1" target="WSIAjKhX-EABzu_cGnmR-8">
          <mxGeometry width="160" relative="1" as="geometry">
            <mxPoint x="70" y="340.09" as="sourcePoint" />
            <mxPoint x="360" y="250.09" as="targetPoint" />
          </mxGeometry>
        </mxCell>
        <mxCell id="WSIAjKhX-EABzu_cGnmR-24" value="" style="endArrow=open;endFill=1;endSize=12;html=1;rounded=0;entryX=0;entryY=0.5;entryDx=0;entryDy=0;exitX=0.5;exitY=0.5;exitDx=0;exitDy=0;exitPerimeter=0;" edge="1" parent="1" source="FsN47DSohb5AFmDKngas-1" target="WSIAjKhX-EABzu_cGnmR-7">
          <mxGeometry width="160" relative="1" as="geometry">
            <mxPoint x="100" y="360.09" as="sourcePoint" />
            <mxPoint x="370" y="260.09" as="targetPoint" />
          </mxGeometry>
        </mxCell>
        <mxCell id="WSIAjKhX-EABzu_cGnmR-32" value="" style="endArrow=open;endFill=1;endSize=12;html=1;rounded=0;entryX=0;entryY=0.5;entryDx=0;entryDy=0;exitX=0.5;exitY=0.5;exitDx=0;exitDy=0;exitPerimeter=0;" edge="1" parent="1" source="FsN47DSohb5AFmDKngas-1" target="WSIAjKhX-EABzu_cGnmR-6">
          <mxGeometry width="160" relative="1" as="geometry">
            <mxPoint x="110" y="350.09" as="sourcePoint" />
            <mxPoint x="380" y="552.09" as="targetPoint" />
          </mxGeometry>
        </mxCell>
        <mxCell id="WSIAjKhX-EABzu_cGnmR-33" value="" style="endArrow=open;endFill=1;endSize=12;html=1;rounded=0;entryX=0;entryY=0.5;entryDx=0;entryDy=0;exitX=0.5;exitY=0.5;exitDx=0;exitDy=0;exitPerimeter=0;" edge="1" parent="1" source="FsN47DSohb5AFmDKngas-1" target="WSIAjKhX-EABzu_cGnmR-5">
          <mxGeometry width="160" relative="1" as="geometry">
            <mxPoint x="120" y="370.09" as="sourcePoint" />
            <mxPoint x="390" y="562.09" as="targetPoint" />
          </mxGeometry>
        </mxCell>
        <mxCell id="WSIAjKhX-EABzu_cGnmR-34" value="Cobrar multa por retraso de entrega" style="ellipse;whiteSpace=wrap;html=1;" vertex="1" parent="1">
          <mxGeometry x="390" y="649.1800000000001" width="140" height="61" as="geometry" />
        </mxCell>
        <mxCell id="WSIAjKhX-EABzu_cGnmR-35" value="" style="endArrow=open;endFill=1;endSize=12;html=1;rounded=0;entryX=0;entryY=0.5;entryDx=0;entryDy=0;exitX=0.5;exitY=0.5;exitDx=0;exitDy=0;exitPerimeter=0;" edge="1" parent="1" source="FsN47DSohb5AFmDKngas-1" target="WSIAjKhX-EABzu_cGnmR-34">
          <mxGeometry width="160" relative="1" as="geometry">
            <mxPoint x="110" y="360.09" as="sourcePoint" />
            <mxPoint x="380" y="628.09" as="targetPoint" />
          </mxGeometry>
        </mxCell>
        <mxCell id="WSIAjKhX-EABzu_cGnmR-36" value="Registrarse en el sistema" style="ellipse;whiteSpace=wrap;html=1;" vertex="1" parent="1">
          <mxGeometry x="990" y="230.09" width="140" height="61" as="geometry" />
        </mxCell>
        <mxCell id="WSIAjKhX-EABzu_cGnmR-37" value="Prestar libros" style="ellipse;whiteSpace=wrap;html=1;" vertex="1" parent="1">
          <mxGeometry x="990" y="297.3085714285714" width="140" height="61" as="geometry" />
        </mxCell>
        <mxCell id="WSIAjKhX-EABzu_cGnmR-38" value="Devolución de libros" style="ellipse;whiteSpace=wrap;html=1;" vertex="1" parent="1">
          <mxGeometry x="990" y="363.3071428571428" width="140" height="61" as="geometry" />
        </mxCell>
        <mxCell id="WSIAjKhX-EABzu_cGnmR-39" value="Pagar multas por entrega tarde" style="ellipse;whiteSpace=wrap;html=1;" vertex="1" parent="1">
          <mxGeometry x="990" y="429.7357142857142" width="140" height="61" as="geometry" />
        </mxCell>
        <mxCell id="WSIAjKhX-EABzu_cGnmR-42" value="Historial de sus transacciones" style="ellipse;whiteSpace=wrap;html=1;" vertex="1" parent="1">
          <mxGeometry x="990" y="561.5928571428572" width="140" height="61" as="geometry" />
        </mxCell>
        <mxCell id="WSIAjKhX-EABzu_cGnmR-43" value="Búsqueda de libros" style="ellipse;whiteSpace=wrap;html=1;" vertex="1" parent="1">
          <mxGeometry x="990" y="496.16428571428565" width="140" height="61" as="geometry" />
        </mxCell>
        <mxCell id="WSIAjKhX-EABzu_cGnmR-45" value="" style="endArrow=open;endFill=1;endSize=12;html=1;rounded=0;exitX=0.5;exitY=0.5;exitDx=0;exitDy=0;exitPerimeter=0;entryX=0;entryY=0.5;entryDx=0;entryDy=0;" edge="1" parent="1" source="FsN47DSohb5AFmDKngas-2">
          <mxGeometry width="160" relative="1" as="geometry">
            <mxPoint x="700" y="463.66" as="sourcePoint" />
            <mxPoint x="990" y="259.65999999999997" as="targetPoint" />
          </mxGeometry>
        </mxCell>
        <mxCell id="WSIAjKhX-EABzu_cGnmR-46" value="" style="endArrow=open;endFill=1;endSize=12;html=1;rounded=0;exitX=0.5;exitY=0.5;exitDx=0;exitDy=0;exitPerimeter=0;entryX=0;entryY=0.5;entryDx=0;entryDy=0;" edge="1" parent="1" source="FsN47DSohb5AFmDKngas-2">
          <mxGeometry width="160" relative="1" as="geometry">
            <mxPoint x="700" y="463.66" as="sourcePoint" />
            <mxPoint x="990" y="327.65999999999997" as="targetPoint" />
          </mxGeometry>
        </mxCell>
        <mxCell id="WSIAjKhX-EABzu_cGnmR-47" value="" style="endArrow=open;endFill=1;endSize=12;html=1;rounded=0;exitX=0.5;exitY=0.5;exitDx=0;exitDy=0;exitPerimeter=0;entryX=0;entryY=0.5;entryDx=0;entryDy=0;" edge="1" parent="1" source="FsN47DSohb5AFmDKngas-2">
          <mxGeometry width="160" relative="1" as="geometry">
            <mxPoint x="700" y="463.66" as="sourcePoint" />
            <mxPoint x="990" y="393.66" as="targetPoint" />
          </mxGeometry>
        </mxCell>
        <mxCell id="WSIAjKhX-EABzu_cGnmR-48" value="" style="endArrow=open;endFill=1;endSize=12;html=1;rounded=0;entryX=0;entryY=0.5;entryDx=0;entryDy=0;exitX=0.5;exitY=0.5;exitDx=0;exitDy=0;exitPerimeter=0;" edge="1" parent="1" source="FsN47DSohb5AFmDKngas-2">
          <mxGeometry width="160" relative="1" as="geometry">
            <mxPoint x="700" y="463.66" as="sourcePoint" />
            <mxPoint x="990" y="459.66" as="targetPoint" />
          </mxGeometry>
        </mxCell>
        <mxCell id="WSIAjKhX-EABzu_cGnmR-49" value="" style="endArrow=open;endFill=1;endSize=12;html=1;rounded=0;entryX=0;entryY=0.5;entryDx=0;entryDy=0;exitX=0.5;exitY=0.5;exitDx=0;exitDy=0;exitPerimeter=0;" edge="1" parent="1" source="FsN47DSohb5AFmDKngas-2">
          <mxGeometry width="160" relative="1" as="geometry">
            <mxPoint x="650" y="430.09" as="sourcePoint" />
            <mxPoint x="990" y="525.6600000000001" as="targetPoint" />
          </mxGeometry>
        </mxCell>
        <mxCell id="WSIAjKhX-EABzu_cGnmR-50" value="" style="endArrow=open;endFill=1;endSize=12;html=1;rounded=0;entryX=0;entryY=0.5;entryDx=0;entryDy=0;exitX=0.5;exitY=0.5;exitDx=0;exitDy=0;exitPerimeter=0;" edge="1" parent="1" source="FsN47DSohb5AFmDKngas-2">
          <mxGeometry width="160" relative="1" as="geometry">
            <mxPoint x="660" y="430.09" as="sourcePoint" />
            <mxPoint x="990" y="591.6600000000001" as="targetPoint" />
          </mxGeometry>
        </mxCell>
      </root>
    </mxGraphModel>
  </diagram>
  <diagram name="Clases" id="reSdXC92OjT523xm0scr">
    <mxGraphModel dx="1556" dy="1090" grid="1" gridSize="10" guides="1" tooltips="1" connect="1" arrows="1" fold="1" page="1" pageScale="1" pageWidth="1169" pageHeight="827" math="0" shadow="0">
      <root>
        <mxCell id="0" />
        <mxCell id="1" parent="0" />
        <mxCell id="weCbnagBdYTipxchqnjs-6" value="&lt;p style=&quot;margin:0px;margin-top:4px;text-align:center;&quot;&gt;&lt;i&gt;SISTEMA DE BIBLIOTECA&lt;/i&gt;&lt;/p&gt;&lt;hr size=&quot;1&quot;&gt;&lt;p style=&quot;margin:0px;margin-left:4px;&quot;&gt;+ Libros&lt;/p&gt;&lt;p style=&quot;margin:0px;margin-left:4px;&quot;&gt;+ Usuarios&lt;/p&gt;&lt;hr size=&quot;1&quot;&gt;&lt;p style=&quot;margin:0px;margin-left:4px;&quot;&gt;+ AgregarLibro&lt;/p&gt;&lt;p style=&quot;margin:0px;margin-left:4px;&quot;&gt;+ EliminarLibro&lt;/p&gt;&lt;p style=&quot;margin:0px;margin-left:4px;&quot;&gt;+ BuscarLibroPorISBN&lt;/p&gt;&lt;p style=&quot;margin:0px;margin-left:4px;&quot;&gt;+ BuscarLibroPor&lt;span style=&quot;background-color: initial;&quot;&gt;Titulo&lt;/span&gt;&lt;/p&gt;&lt;p style=&quot;margin:0px;margin-left:4px;&quot;&gt;+ BuscarLibroPorAutor&lt;/p&gt;&lt;p style=&quot;margin:0px;margin-left:4px;&quot;&gt;+ RegistrarUsuario&lt;/p&gt;&lt;p style=&quot;margin:0px;margin-left:4px;&quot;&gt;+ EliminarUsuario&lt;/p&gt;&lt;p style=&quot;margin:0px;margin-left:4px;&quot;&gt;+ BuscarUsuarioPorID&lt;/p&gt;&lt;p style=&quot;margin:0px;margin-left:4px;&quot;&gt;+ GenerarRecordatorioDevolucion&lt;/p&gt;&lt;p style=&quot;margin:0px;margin-left:4px;&quot;&gt;+ CalcularMultaDeRetraso&lt;/p&gt;&lt;p style=&quot;margin:0px;margin-left:4px;&quot;&gt;+ HistorialTransacciones&lt;/p&gt;" style="verticalAlign=top;align=left;overflow=fill;fontSize=12;fontFamily=Helvetica;html=1;whiteSpace=wrap;" vertex="1" parent="1">
          <mxGeometry x="475" y="90" width="200" height="250" as="geometry" />
        </mxCell>
        <mxCell id="weCbnagBdYTipxchqnjs-7" value="LIBRO" style="swimlane;fontStyle=1;align=center;verticalAlign=top;childLayout=stackLayout;horizontal=1;startSize=26;horizontalStack=0;resizeParent=1;resizeParentMax=0;resizeLast=0;collapsible=1;marginBottom=0;whiteSpace=wrap;html=1;" vertex="1" parent="1">
          <mxGeometry x="150" y="420" width="250" height="170" as="geometry" />
        </mxCell>
        <mxCell id="weCbnagBdYTipxchqnjs-8" value="- ISBN&lt;br&gt;- Titulo&lt;br&gt;- Autor&lt;br&gt;- Anio&lt;br&gt;- Editorial&lt;br&gt;- Disponibilidad" style="text;strokeColor=none;fillColor=none;align=left;verticalAlign=top;spacingLeft=4;spacingRight=4;overflow=hidden;rotatable=0;points=[[0,0.5],[1,0.5]];portConstraint=eastwest;whiteSpace=wrap;html=1;" vertex="1" parent="weCbnagBdYTipxchqnjs-7">
          <mxGeometry y="26" width="250" height="94" as="geometry" />
        </mxCell>
        <mxCell id="weCbnagBdYTipxchqnjs-9" value="" style="line;strokeWidth=1;fillColor=none;align=left;verticalAlign=middle;spacingTop=-1;spacingLeft=3;spacingRight=3;rotatable=0;labelPosition=right;points=[];portConstraint=eastwest;strokeColor=inherit;" vertex="1" parent="weCbnagBdYTipxchqnjs-7">
          <mxGeometry y="120" width="250" height="8" as="geometry" />
        </mxCell>
        <mxCell id="weCbnagBdYTipxchqnjs-10" value="+ Prestar()&lt;br&gt;+ Devolver ()" style="text;strokeColor=none;fillColor=none;align=left;verticalAlign=top;spacingLeft=4;spacingRight=4;overflow=hidden;rotatable=0;points=[[0,0.5],[1,0.5]];portConstraint=eastwest;whiteSpace=wrap;html=1;" vertex="1" parent="weCbnagBdYTipxchqnjs-7">
          <mxGeometry y="128" width="250" height="42" as="geometry" />
        </mxCell>
        <mxCell id="weCbnagBdYTipxchqnjs-11" value="USUARIO" style="swimlane;fontStyle=1;align=center;verticalAlign=top;childLayout=stackLayout;horizontal=1;startSize=26;horizontalStack=0;resizeParent=1;resizeParentMax=0;resizeLast=0;collapsible=1;marginBottom=0;whiteSpace=wrap;html=1;" vertex="1" parent="1">
          <mxGeometry x="450" y="420" width="250" height="160" as="geometry" />
        </mxCell>
        <mxCell id="weCbnagBdYTipxchqnjs-12" value="- ID&lt;br&gt;- Nombre&lt;br&gt;- Dirección&lt;br&gt;- Teléfono" style="text;strokeColor=none;fillColor=none;align=left;verticalAlign=top;spacingLeft=4;spacingRight=4;overflow=hidden;rotatable=0;points=[[0,0.5],[1,0.5]];portConstraint=eastwest;whiteSpace=wrap;html=1;" vertex="1" parent="weCbnagBdYTipxchqnjs-11">
          <mxGeometry y="26" width="250" height="64" as="geometry" />
        </mxCell>
        <mxCell id="weCbnagBdYTipxchqnjs-13" value="" style="line;strokeWidth=1;fillColor=none;align=left;verticalAlign=middle;spacingTop=-1;spacingLeft=3;spacingRight=3;rotatable=0;labelPosition=right;points=[];portConstraint=eastwest;strokeColor=inherit;" vertex="1" parent="weCbnagBdYTipxchqnjs-11">
          <mxGeometry y="90" width="250" height="8" as="geometry" />
        </mxCell>
        <mxCell id="weCbnagBdYTipxchqnjs-14" value="+ MostrarHistorialTransacciones()&lt;br&gt;+ SolicitarPrestamo()&lt;br&gt;+ DevolverLibro()" style="text;strokeColor=none;fillColor=none;align=left;verticalAlign=top;spacingLeft=4;spacingRight=4;overflow=hidden;rotatable=0;points=[[0,0.5],[1,0.5]];portConstraint=eastwest;whiteSpace=wrap;html=1;" vertex="1" parent="weCbnagBdYTipxchqnjs-11">
          <mxGeometry y="98" width="250" height="62" as="geometry" />
        </mxCell>
        <mxCell id="weCbnagBdYTipxchqnjs-18" value="TRANSACCIONES USUARIO" style="swimlane;fontStyle=1;align=center;verticalAlign=top;childLayout=stackLayout;horizontal=1;startSize=26;horizontalStack=0;resizeParent=1;resizeParentMax=0;resizeLast=0;collapsible=1;marginBottom=0;whiteSpace=wrap;html=1;" vertex="1" parent="1">
          <mxGeometry x="445" y="640" width="260" height="130" as="geometry" />
        </mxCell>
        <mxCell id="weCbnagBdYTipxchqnjs-19" value="- Lista de libros prestados&lt;br&gt;- Lista de libros devueltos&lt;br&gt;- Fecha de prestamo&lt;br&gt;- Fecha de devolución" style="text;strokeColor=none;fillColor=none;align=left;verticalAlign=top;spacingLeft=4;spacingRight=4;overflow=hidden;rotatable=0;points=[[0,0.5],[1,0.5]];portConstraint=eastwest;whiteSpace=wrap;html=1;" vertex="1" parent="weCbnagBdYTipxchqnjs-18">
          <mxGeometry y="26" width="260" height="64" as="geometry" />
        </mxCell>
        <mxCell id="weCbnagBdYTipxchqnjs-20" value="" style="line;strokeWidth=1;fillColor=none;align=left;verticalAlign=middle;spacingTop=-1;spacingLeft=3;spacingRight=3;rotatable=0;labelPosition=right;points=[];portConstraint=eastwest;strokeColor=inherit;" vertex="1" parent="weCbnagBdYTipxchqnjs-18">
          <mxGeometry y="90" width="260" height="8" as="geometry" />
        </mxCell>
        <mxCell id="weCbnagBdYTipxchqnjs-21" value="+ DescargarMatriz()" style="text;strokeColor=none;fillColor=none;align=left;verticalAlign=top;spacingLeft=4;spacingRight=4;overflow=hidden;rotatable=0;points=[[0,0.5],[1,0.5]];portConstraint=eastwest;whiteSpace=wrap;html=1;" vertex="1" parent="weCbnagBdYTipxchqnjs-18">
          <mxGeometry y="98" width="260" height="32" as="geometry" />
        </mxCell>
        <mxCell id="weCbnagBdYTipxchqnjs-26" value="" style="endArrow=diamondThin;endFill=1;endSize=24;html=1;rounded=0;exitX=0.5;exitY=0;exitDx=0;exitDy=0;entryX=0;entryY=0.5;entryDx=0;entryDy=0;" edge="1" parent="1" source="weCbnagBdYTipxchqnjs-7" target="weCbnagBdYTipxchqnjs-6">
          <mxGeometry width="160" relative="1" as="geometry">
            <mxPoint x="420" y="440" as="sourcePoint" />
            <mxPoint x="580" y="440" as="targetPoint" />
          </mxGeometry>
        </mxCell>
        <mxCell id="weCbnagBdYTipxchqnjs-27" value="" style="endArrow=diamondThin;endFill=1;endSize=24;html=1;rounded=0;exitX=0.5;exitY=0;exitDx=0;exitDy=0;entryX=0.5;entryY=1;entryDx=0;entryDy=0;" edge="1" parent="1" source="weCbnagBdYTipxchqnjs-11" target="weCbnagBdYTipxchqnjs-6">
          <mxGeometry width="160" relative="1" as="geometry">
            <mxPoint x="285" y="430" as="sourcePoint" />
            <mxPoint x="480" y="235" as="targetPoint" />
          </mxGeometry>
        </mxCell>
        <mxCell id="weCbnagBdYTipxchqnjs-29" value="" style="endArrow=diamondThin;endFill=1;endSize=24;html=1;rounded=0;exitX=0.5;exitY=0;exitDx=0;exitDy=0;entryX=0.5;entryY=1;entryDx=0;entryDy=0;" edge="1" parent="1" source="weCbnagBdYTipxchqnjs-18">
          <mxGeometry width="160" relative="1" as="geometry">
            <mxPoint x="575" y="650" as="sourcePoint" />
            <mxPoint x="575" y="580" as="targetPoint" />
          </mxGeometry>
        </mxCell>
        <mxCell id="weCbnagBdYTipxchqnjs-30" value="TRANSACCIONES ADMINISTRADOR" style="swimlane;fontStyle=1;align=center;verticalAlign=top;childLayout=stackLayout;horizontal=1;startSize=26;horizontalStack=0;resizeParent=1;resizeParentMax=0;resizeLast=0;collapsible=1;marginBottom=0;whiteSpace=wrap;html=1;" vertex="1" parent="1">
          <mxGeometry x="740" y="420" width="250" height="160" as="geometry" />
        </mxCell>
        <mxCell id="weCbnagBdYTipxchqnjs-31" value="- Lista de libros prestados&lt;br style=&quot;border-color: var(--border-color);&quot;&gt;- Lista de libros devueltos&lt;br style=&quot;border-color: var(--border-color);&quot;&gt;- Fecha de prestamo&lt;br style=&quot;border-color: var(--border-color);&quot;&gt;- Fecha de devolución&lt;br&gt;- Lista de usuarios registrados" style="text;strokeColor=none;fillColor=none;align=left;verticalAlign=top;spacingLeft=4;spacingRight=4;overflow=hidden;rotatable=0;points=[[0,0.5],[1,0.5]];portConstraint=eastwest;whiteSpace=wrap;html=1;" vertex="1" parent="weCbnagBdYTipxchqnjs-30">
          <mxGeometry y="26" width="250" height="94" as="geometry" />
        </mxCell>
        <mxCell id="weCbnagBdYTipxchqnjs-32" value="" style="line;strokeWidth=1;fillColor=none;align=left;verticalAlign=middle;spacingTop=-1;spacingLeft=3;spacingRight=3;rotatable=0;labelPosition=right;points=[];portConstraint=eastwest;strokeColor=inherit;" vertex="1" parent="weCbnagBdYTipxchqnjs-30">
          <mxGeometry y="120" width="250" height="8" as="geometry" />
        </mxCell>
        <mxCell id="weCbnagBdYTipxchqnjs-33" value="+ DescargarMatriz()" style="text;strokeColor=none;fillColor=none;align=left;verticalAlign=top;spacingLeft=4;spacingRight=4;overflow=hidden;rotatable=0;points=[[0,0.5],[1,0.5]];portConstraint=eastwest;whiteSpace=wrap;html=1;" vertex="1" parent="weCbnagBdYTipxchqnjs-30">
          <mxGeometry y="128" width="250" height="32" as="geometry" />
        </mxCell>
        <mxCell id="weCbnagBdYTipxchqnjs-34" value="" style="endArrow=diamondThin;endFill=1;endSize=24;html=1;rounded=0;exitX=0.5;exitY=0;exitDx=0;exitDy=0;entryX=1;entryY=0.5;entryDx=0;entryDy=0;" edge="1" parent="1" source="weCbnagBdYTipxchqnjs-30" target="weCbnagBdYTipxchqnjs-6">
          <mxGeometry width="160" relative="1" as="geometry">
            <mxPoint x="820" y="445" as="sourcePoint" />
            <mxPoint x="1015" y="250" as="targetPoint" />
          </mxGeometry>
        </mxCell>
      </root>
    </mxGraphModel>
  </diagram>
</mxfile>
